<svg xmlns="http://www.w3.org/2000/svg" width="1650" height="916" viewBox="0 0 825 458" fill="none">
<rect x="40" y="110" width="300" height="180" rx="8" stroke="#2C2C2C" stroke-width="2.4"/>
<line x1="70" y1="150" x2="230" y2="150" stroke="#2C2C2C" stroke-width="3" stroke-linecap="round"/>
<line x1="70" y1="182" x2="190" y2="182" stroke="#2C2C2C" stroke-width="1.8" stroke-linecap="round"/>
<line x1="70" y1="208" x2="210" y2="208" stroke="#2C2C2C" stroke-width="1.8" stroke-linecap="round"/>
<g stroke="#2C2C2C" stroke-width="2">
<rect x="252" y="196" width="64" height="64" rx="3"/>
<rect x="260" y="204" width="14" height="14"/><rect x="294" y="204" width="14" height="14"/><rect x="260" y="238" width="14" height="14"/>
<rect x="282" y="226" width="8" height="8"/><rect x="296" y="240" width="10" height="10"/><rect x="280" y="244" width="6" height="6"/>
</g>
<text x="190" y="330" text-anchor="middle" font-family="sans-serif" font-size="19" fill="#595959" stroke="none">名刺・案内状・SNSに、URLとQRを。</text>
<path d="M370 200 L 450 200" stroke="#a08763" stroke-width="3" stroke-linecap="round"/>
<path d="M438 190 L 452 200 L 438 210" stroke="#a08763" stroke-width="3" fill="none" stroke-linecap="round" stroke-linejoin="round"/>
<rect x="500" y="40" width="200" height="360" rx="18" stroke="#2C2C2C" stroke-width="2.6"/>
<rect x="524" y="70" width="152" height="110" rx="4" stroke="#2C2C2C" stroke-width="1.8"/>
<line x1="524" y1="206" x2="656" y2="206" stroke="#2C2C2C" stroke-width="3" stroke-linecap="round"/>
<line x1="524" y1="234" x2="620" y2="234" stroke="#2C2C2C" stroke-width="1.6" stroke-linecap="round"/>
<line x1="524" y1="262" x2="668" y2="262" stroke="#2C2C2C" stroke-width="1.6" stroke-linecap="round"/>
<line x1="524" y1="290" x2="640" y2="290" stroke="#2C2C2C" stroke-width="1.6" stroke-linecap="round"/>
<line x1="524" y1="318" x2="660" y2="318" stroke="#2C2C2C" stroke-width="1.6" stroke-linecap="round"/>
<line x1="584" y1="382" x2="616" y2="382" stroke="#2C2C2C" stroke-width="1.8" stroke-linecap="round"/>
<text x="600" y="432" text-anchor="middle" font-family="sans-serif" font-size="19" fill="#595959" stroke="none">開いた先は、あなたの公式プロフィール。</text>
</svg>
