<svg xmlns="http://www.w3.org/2000/svg" width="1650" height="1650" viewBox="0 0 825 825" fill="none">
<text x="40" y="48" font-family="sans-serif" font-size="24" letter-spacing="4" fill="#2C2C2C">掲載項目</text>
<line x1="40" y1="66" x2="785" y2="66" stroke="#a08763" stroke-width="2"/>
<g font-family="sans-serif" font-size="21" fill="#2C2C2C">
<text x="60" y="118">作家名</text>
<text x="60" y="172">ジャンル</text>
<text x="60" y="226">生年</text>
<text x="60" y="280">略歴</text>
<text x="60" y="334">受賞歴</text>
<text x="60" y="388">著書</text>
<text x="440" y="118">作品収蔵先</text>
<text x="440" y="172">作家近影</text>
<text x="440" y="226">作家のことば</text>
<text x="440" y="280">代表作品</text>
<text x="440" y="334">販売作品</text>
<text x="440" y="388">など</text>
</g>
<g stroke="#E8E2D6" stroke-width="1.4">
<line x1="60" y1="132" x2="390" y2="132"/><line x1="60" y1="186" x2="390" y2="186"/><line x1="60" y1="240" x2="390" y2="240"/>
<line x1="60" y1="294" x2="390" y2="294"/><line x1="60" y1="348" x2="390" y2="348"/><line x1="60" y1="402" x2="390" y2="402"/>
<line x1="440" y1="132" x2="770" y2="132"/><line x1="440" y1="186" x2="770" y2="186"/><line x1="440" y1="240" x2="770" y2="240"/>
<line x1="440" y1="294" x2="770" y2="294"/><line x1="440" y1="348" x2="770" y2="348"/>
</g>
</svg>
