<svg xmlns="http://www.w3.org/2000/svg" width="825" height="916" viewBox="0 0 825 916" fill="none" stroke="#2C2C2C" stroke-linecap="round" stroke-linejoin="round">
<path d="M400 745 C 385 715, 330 715, 330 755 C 330 790, 385 793, 400 765 C 415 793, 470 790, 470 755 C 470 715, 415 715, 400 745 Z" stroke-width="5"/>
<path d="M345 785 C 325 815, 300 835, 275 850" stroke-width="4"/>
<path d="M455 785 C 475 815, 500 835, 525 850" stroke-width="4"/>
<path d="M400 745 C 420 640, 480 540, 540 440" stroke-width="4"/>
<path d="M540 440 C 560 400, 520 340, 480 300" stroke-width="3"/>
<path d="M540 440 C 600 400, 640 360, 660 290" stroke-width="3"/>
<path d="M480 300 C 430 250, 350 240, 290 200" stroke-width="2.5"/>
<path d="M660 290 C 660 230, 620 180, 600 130" stroke-width="2.5"/>
<path d="M480 300 C 520 240, 560 220, 560 160" stroke-width="2.5"/>
<path d="M290 200 C 240 170, 220 140, 180 120" stroke-width="2"/>
<path d="M480 300 C 400 320, 320 320, 240 330" stroke-width="2"/>
<circle cx="540" cy="440" r="14" stroke-width="3.5"/>
<circle cx="480" cy="300" r="12" stroke-width="3"/>
<circle cx="660" cy="290" r="12" stroke-width="3"/>
<circle cx="290" cy="200" r="10" stroke-width="2.5"/>
<circle cx="600" cy="130" r="10" stroke-width="2.5"/>
<circle cx="560" cy="160" r="8" stroke-width="2.5"/>
<circle cx="180" cy="120" r="8" stroke-width="2.5"/>
<circle cx="240" cy="330" r="8" stroke-width="2.5"/>
</svg>
