<svg xmlns="http://www.w3.org/2000/svg" width="900" height="300" viewBox="0 0 144 48" fill="none" stroke="#2C2C2C" stroke-width="1.6" stroke-linecap="round" stroke-linejoin="round">
<g><rect x="9" y="11" width="30" height="26" rx="1.5"/><path d="M13 31 L 20 22 L 25 27 L 30 20 L 35 29"/></g>
<g transform="translate(48,0)"><path d="M10 14 h20 a3 3 0 0 1 3 3 v8 a3 3 0 0 1 -3 3 h-12 l-6 5 v-5 h-2 a3 3 0 0 1 -3 -3 v-8 a3 3 0 0 1 3 -3 z"/><path d="M20 32 h13 a3 3 0 0 0 3 -3 v-6" stroke-width="1.3"/></g>
<g transform="translate(96,0)"><path d="M13 9 h16 l6 6 v24 h-22 z"/><path d="M29 9 v6 h6"/><line x1="18" y1="22" x2="30" y2="22"/><line x1="18" y1="27" x2="30" y2="27"/><line x1="18" y1="32" x2="26" y2="32"/></g>
</svg>
