<svg xmlns="http://www.w3.org/2000/svg" width="1650" height="916" viewBox="0 0 412 229" fill="none" stroke="#2C2C2C" stroke-width="1.33" stroke-linecap="round" stroke-linejoin="round">
<g transform="translate(30,32) scale(1.2)"><rect x="9" y="11" width="30" height="26" rx="1.5"/><path d="M13 31 L 20 22 L 25 27 L 30 20 L 35 29"/><circle cx="31" cy="17" r="1.8"/></g>
<g transform="translate(124,32) scale(1.2)"><circle cx="24" cy="12.5" r="3.6"/><path d="M20 32 C 19 24, 21.5 17.5, 24 16.5 C 26.5 17.5, 29 24, 28 32"/><rect x="16.5" y="33" width="15" height="4" rx="0.6"/></g>
<g transform="translate(218,32) scale(1.2)"><path d="M19 13 L 29 13"/><path d="M19.5 13 C 18 18, 13.5 21, 14.5 28.5 C 15.5 37, 32.5 37, 33.5 28.5 C 34.5 21, 30 18, 28.5 13"/></g>
<g transform="translate(312,32) scale(1.2)"><line x1="31" y1="9" x2="22" y2="24"/><path d="M22 24 C 19.5 27, 18 31, 20.5 32.5 C 23 31, 23.7 27, 22.7 24.6"/><path d="M13 36 C 19 33, 28 38, 35 32.5"/></g>
<g transform="translate(30,140) scale(1.2)"><circle cx="24" cy="11" r="2"/><line x1="23" y1="12.6" x2="16" y2="35"/><line x1="25" y1="12.6" x2="32" y2="35"/><path d="M16.5 33 Q 24 38, 31.5 33"/></g>
<g transform="translate(124,140) scale(1.2)"><rect x="8" y="16" width="32" height="21" rx="2.5"/><path d="M17 16 L 19 12 L 27 12 L 29 16"/><circle cx="24" cy="27" r="6.4"/><circle cx="33.5" cy="20.5" r="1.2"/></g>
<g transform="translate(218,140) scale(1.2)"><rect x="9" y="11" width="30" height="26" rx="1.5"/><circle cx="19" cy="22" r="4.5"/><path d="M24 32 L 33 16"/><rect x="27" y="24.5" width="6" height="6" rx="0.6" transform="rotate(14 30 27.5)"/></g>
<g transform="translate(312,140) scale(1.2)"><path d="M11 22 L 24 11 L 37 22"/><line x1="15" y1="20" x2="15" y2="35"/><line x1="33" y1="20" x2="33" y2="35"/><line x1="11" y1="35" x2="37" y2="35"/></g>
</svg>
