<svg xmlns="http://www.w3.org/2000/svg" width="1650" height="1650" viewBox="0 0 825 825" fill="none">
<rect x="20" y="16" width="785" height="426" rx="8" stroke="#B9AE9C" stroke-width="2" stroke-dasharray="8 8"/>
<rect x="60" y="52" width="560" height="52" rx="26" stroke="#2C2C2C" stroke-width="2"/>
<circle cx="94" cy="78" r="10" stroke="#2C2C2C" stroke-width="2"/>
<line x1="101" y1="85" x2="110" y2="94" stroke="#2C2C2C" stroke-width="2" stroke-linecap="round"/>
<text x="130" y="84" font-family="sans-serif" font-size="18" fill="#8A7E6B" stroke="none">作家名で検索（漢字・ひらがな・カタカナ・ローマ字）</text>
<rect x="646" y="52" width="120" height="52" rx="26" stroke="#34416e" stroke-width="2"/>
<text x="706" y="85" text-anchor="middle" font-family="sans-serif" font-size="20" fill="#34416e" stroke="none">検索</text>
<text x="60" y="140" font-family="sans-serif" font-size="16" fill="#8A7E6B" stroke="none">ジャンルから探す｜絵画・彫刻・工芸・書・写真・デザイン・現代美術・建築</text>
<g stroke="#CFC5B4" stroke-width="1.6">
<rect x="60" y="172" width="72" height="72" rx="4"/><line x1="150" y1="190" x2="430" y2="190" stroke-width="3"/><line x1="150" y1="220" x2="360" y2="220"/>
<rect x="60" y="262" width="72" height="72" rx="4"/><line x1="150" y1="280" x2="470" y2="280" stroke-width="3"/><line x1="150" y1="310" x2="330" y2="310"/>
<rect x="60" y="352" width="72" height="72" rx="4"/><line x1="150" y1="370" x2="400" y2="370" stroke-width="3"/><line x1="150" y1="400" x2="380" y2="400"/>
</g>
<text x="412" y="436" text-anchor="middle" font-family="sans-serif" font-size="16" fill="#8A7E6B" stroke="none">実際の検索画面を、ここに差し込み予定です</text>
</svg>
